<?xml version="1.0" encoding="UTF-8"?>
<svg width="512" height="512" viewBox="0 0 64 64" xmlns="http://www.w3.org/2000/svg">
  <title>SUNCITY Sun-Camera Favicon</title>
  <desc>Sun with a camera inside; brand orange #F0791C</desc>
  <!-- Rays -->
  <g fill="#F0791C">
    <!-- 12 rays as rotated rounded rectangles -->
    <rect x="31" y="2" width="2" height="8" rx="1" transform="rotate(0 32 32)"/>
    <rect x="31" y="2" width="2" height="8" rx="1" transform="rotate(30 32 32)"/>
    <rect x="31" y="2" width="2" height="8" rx="1" transform="rotate(60 32 32)"/>
    <rect x="31" y="2" width="2" height="8" rx="1" transform="rotate(90 32 32)"/>
    <rect x="31" y="2" width="2" height="8" rx="1" transform="rotate(120 32 32)"/>
    <rect x="31" y="2" width="2" height="8" rx="1" transform="rotate(150 32 32)"/>
    <rect x="31" y="2" width="2" height="8" rx="1" transform="rotate(180 32 32)"/>
    <rect x="31" y="2" width="2" height="8" rx="1" transform="rotate(210 32 32)"/>
    <rect x="31" y="2" width="2" height="8" rx="1" transform="rotate(240 32 32)"/>
    <rect x="31" y="2" width="2" height="8" rx="1" transform="rotate(270 32 32)"/>
    <rect x="31" y="2" width="2" height="8" rx="1" transform="rotate(300 32 32)"/>
    <rect x="31" y="2" width="2" height="8" rx="1" transform="rotate(330 32 32)"/>
    <!-- Sun core -->
    <circle cx="32" cy="32" r="14" />
  </g>

  <!-- Camera -->
  <g>
    <rect x="18" y="26" width="28" height="18" rx="3" fill="#FFFFFF"/>
    <rect x="18" y="22" width="16" height="6" rx="2" fill="#FFFFFF"/>
    <circle cx="32" cy="35" r="6" fill="#F0791C"/>
  </g>
</svg>
