<?xml version="1.0" encoding="UTF-8"?>
<svg width="512" height="512" viewBox="0 0 64 64" xmlns="http://www.w3.org/2000/svg">
  <title>SUNCITY — Sun + Camera (orange core, larger white camera)</title>
  <defs>
    <style>
      .sun { fill: #F0791C; }
      .rays { fill: #F0791C; }
      .cam-fill { fill: #FFFFFF; }
      .cam-stroke { stroke: #F0791C; stroke-width: 1.6; stroke-linejoin: round; stroke-linecap: round; }
    </style>
  </defs>

  <!-- Rays: exactly 12, fully within 64x64 -->
  <g class="rays" transform="translate(32 32)">
    <rect x="-1" y="-30" width="2" height="8" rx="1" transform="rotate(0)"/> <rect x="-1" y="-30" width="2" height="8" rx="1" transform="rotate(30)"/> <rect x="-1" y="-30" width="2" height="8" rx="1" transform="rotate(60)"/> <rect x="-1" y="-30" width="2" height="8" rx="1" transform="rotate(90)"/> <rect x="-1" y="-30" width="2" height="8" rx="1" transform="rotate(120)"/> <rect x="-1" y="-30" width="2" height="8" rx="1" transform="rotate(150)"/> <rect x="-1" y="-30" width="2" height="8" rx="1" transform="rotate(180)"/> <rect x="-1" y="-30" width="2" height="8" rx="1" transform="rotate(210)"/> <rect x="-1" y="-30" width="2" height="8" rx="1" transform="rotate(240)"/> <rect x="-1" y="-30" width="2" height="8" rx="1" transform="rotate(270)"/> <rect x="-1" y="-30" width="2" height="8" rx="1" transform="rotate(300)"/> <rect x="-1" y="-30" width="2" height="8" rx="1" transform="rotate(330)"/>
  </g>

  <!-- Sun core -->
  <circle class="sun" cx="32" cy="32" r="26"/>

  <!-- Camera: bigger but within the circle -->
  <g class="cam-stroke">
    <rect class="cam-fill" x="16" y="23" width="32" height="20" rx="3"/>
    <rect class="cam-fill" x="19" y="18" width="18" height="6" rx="2"/>
    <circle class="cam-fill" cx="32" cy="33" r="7"/>
    <circle fill="none" cx="32" cy="33" r="7"/>
    <rect class="cam-fill" x="38" y="26" width="6" height="6" rx="1"/>
  </g>
</svg>